<svg width="108" height="137" viewBox="0 0 108 137" fill="none" xmlns="http://www.w3.org/2000/svg">
<path fill-rule="evenodd" clip-rule="evenodd" d="M54 137C83.8234 137 108 112.88 108 83.1269C108 53.3735 83.8234 29.2537 54 29.2537C24.1766 29.2537 0 53.3735 0 83.1269C0 112.88 24.1766 137 54 137ZM53.8548 126.863C78.1465 126.863 97.8387 107.217 97.8387 82.982C97.8387 58.7475 78.1465 39.1015 53.8548 39.1015C29.5632 39.1015 9.87097 58.7475 9.87097 82.982C9.87097 107.217 29.5632 126.863 53.8548 126.863Z" fill="#BA68C8"/>
<path fill-rule="evenodd" clip-rule="evenodd" d="M54.1452 118.753C73.9472 118.753 90 102.738 90 82.982C90 63.2265 73.9472 47.2114 54.1452 47.2114C34.3431 47.2114 18.2903 63.2265 18.2903 82.982C18.2903 102.738 34.3431 118.753 54.1452 118.753ZM54.3253 111.203C69.8486 111.203 82.4326 98.6486 82.4326 83.1618C82.4326 67.675 69.8486 55.1205 54.3253 55.1205C38.8021 55.1205 26.218 67.675 26.218 83.1618C26.218 98.6486 38.8021 111.203 54.3253 111.203Z" fill="#BA68C8"/>
<path d="M82.1613 83.1269C82.1613 98.4834 69.683 110.932 54.2903 110.932C38.8976 110.932 26.4194 98.4834 26.4194 83.1269C26.4194 67.7703 38.8976 55.3214 54.2903 55.3214C69.683 55.3214 82.1613 67.7703 82.1613 83.1269Z" fill="#0A2241"/>
<path d="M5.86267 22.0688C7.0161 20.918 8.88618 20.918 10.0396 22.0688L20.1607 32.1661C21.3141 33.3168 21.3141 35.1825 20.1607 36.3332C19.0073 37.4839 17.1372 37.4839 15.9837 36.3332L5.86267 26.2359C4.70923 25.0852 4.70923 23.2195 5.86267 22.0688Z" fill="#BA68C8"/>
<path d="M102.322 22.0688C103.475 23.2195 103.475 25.0852 102.322 26.2359L92.2009 36.3332C91.0475 37.4839 89.1774 37.4839 88.024 36.3332C86.8705 35.1825 86.8705 33.3168 88.0239 32.1661L98.145 22.0688C99.2985 20.918 101.169 20.918 102.322 22.0688Z" fill="#BA68C8"/>
<path fill-rule="evenodd" clip-rule="evenodd" d="M54.3253 100.418C63.8781 100.418 71.6221 92.6921 71.6221 83.1618C71.6221 73.6315 63.8781 65.9056 54.3253 65.9056C44.7726 65.9056 37.0285 73.6315 37.0285 83.1618C37.0285 92.6921 44.7726 100.418 54.3253 100.418ZM54.3253 95.7444C61.2909 95.7444 66.9376 90.111 66.9376 83.1618C66.9376 76.2126 61.2909 70.5792 54.3253 70.5792C47.3598 70.5792 41.7131 76.2126 41.7131 83.1618C41.7131 90.111 47.3598 95.7444 54.3253 95.7444Z" fill="#BA68C8"/>
<path d="M56.6129 81.9683C56.6129 84.8476 54.2732 87.1818 51.3871 87.1818C48.501 87.1818 46.1613 84.8476 46.1613 81.9683C46.1613 79.0889 48.501 76.7548 51.3871 76.7548C54.2732 76.7548 56.6129 79.0889 56.6129 81.9683Z" fill="white"/>
<path d="M47.6129 68.9345C47.6129 71.8138 45.2082 74.148 42.2419 74.148C39.2756 74.148 36.871 71.8138 36.871 68.9345C36.871 66.0551 39.2756 63.7209 42.2419 63.7209C45.2082 63.7209 47.6129 66.0551 47.6129 68.9345Z" fill="white"/>
<path fill-rule="evenodd" clip-rule="evenodd" d="M73.9967 33.3087C71.1915 32.5711 68.3235 31.9872 65.4024 31.5665L86.0794 6.60617H73.4567L61.0953 31.0688C58.8489 30.8727 56.5749 30.7725 54.2774 30.7725C52.6826 30.7725 51.0991 30.8208 49.5283 30.9159L37.2442 6.60617H23.3799L45.2612 31.2923C41.6094 31.7162 38.0356 32.3944 34.5581 33.3087H33.2867L24.1273 20.1301L13.2097 4.34461C12.871 2.89646 12.9194 0.000216833 15.8223 1.2195e-08C15.8224 1.2195e-08 15.8225 0 15.8226 0C15.8227 0 15.8228 1.22497e-08 15.8229 1.22497e-08C16.7451 7.5179e-05 17.9578 0.346071 19.4586 0.774279C23.8643 2.03127 30.753 3.99669 40.0645 0C47.7097 1.59302 64.5387 3.82326 70.6935 0C74.7414 1.68265 84.8362 4.03561 92.9484 0.0494933C93.1099 0.0793247 93.2654 0.122145 93.414 0.176593C93.9885 0.485649 94.6237 0.97683 95.0084 1.6219C95.3857 2.38886 95.4315 3.31939 95.0142 4.16298C94.8842 4.40833 94.7146 4.66216 94.5 4.92389L74.7581 33.3087H73.9967ZM44.2798 6.60617H65.3865L55.6608 30.3471L44.2798 6.60617Z" fill="#BA68C8"/>
<path d="M45.2612 31.2923L45.5213 31.5857H49.8668L49.5283 30.9159C48.095 31.0027 46.6723 31.1285 45.2612 31.2923Z" fill="#BA68C8"/>
<path d="M61.0953 31.0688L60.8341 31.5857H65.3865L65.4024 31.5665C63.9789 31.3615 62.5429 31.1952 61.0953 31.0688Z" fill="#BA68C8"/>
</svg>
